<?xml version="1.0" encoding="utf-8"?>
<!-- Generator: Adobe Illustrator 17.0.0, SVG Export Plug-In . SVG Version: 6.00 Build 0)  -->
<!DOCTYPE svg PUBLIC "-//W3C//DTD SVG 1.1//EN" "http://www.w3.org/Graphics/SVG/1.1/DTD/svg11.dtd">
<svg version="1.1" id="Calque_1" xmlns="http://www.w3.org/2000/svg" xmlns:xlink="http://www.w3.org/1999/xlink" x="0px" y="0px"
	 width="841.89px" height="595.28px" viewBox="0 0 841.89 595.28" enable-background="new 0 0 841.89 595.28" xml:space="preserve">
<g>
	<path fill="#E53A35" d="M217.095,221.43c-8.066,4.363-14.898,9.425-20.492,15.184v82.46H177.1v-119.74h11.603l6.172,19.257
		c5.431-4.606,11.932-8.969,19.505-13.085c7.569-4.112,14.235-6.172,19.998-6.172l4.691,15.554
		C232.484,214.888,225.158,217.072,217.095,221.43z"/>
	<path fill="#E53A35" d="M567.423,196.125c17.444,0,30.323,6.091,38.637,18.269c8.309,12.182,12.468,28.145,12.468,47.896h-86.905
		c0.495,13.497,4.155,24.155,10.987,31.971c6.828,7.819,17.321,11.726,31.478,11.726c6.419,0,12.301-0.821,17.652-2.469
		c5.347-1.643,11.728-4.278,19.134-7.9l6.171,14.32c-6.751,3.787-13.497,6.789-20.243,9.01c-6.751,2.223-14.239,3.334-22.468,3.334
		c-20.41,0-35.964-5.76-46.661-17.282c-10.701-11.52-16.048-26.911-16.048-46.168c0-12.179,2.181-22.999,6.543-32.466
		c4.359-9.462,10.778-16.869,19.257-22.22C545.901,198.802,555.9,196.125,567.423,196.125z M566.683,212.666
		c-10.208,0-18.231,3.252-24.072,9.752c-5.845,6.504-9.344,15.349-10.493,26.539h67.154
		C596.471,224.763,585.608,212.666,566.683,212.666z"/>
	<path fill="#E53A35" d="M682.225,221.43c-8.066,4.363-14.899,9.425-20.492,15.184v82.46h-19.505v-119.74h11.605l6.171,19.257
		c5.432-4.606,11.931-8.969,19.505-13.085c7.569-4.112,14.235-6.172,19.998-6.172l4.69,15.554
		C697.612,214.888,690.286,217.072,682.225,221.43z"/>
</g>
<text transform="matrix(1 0 0 1 124.9793 383.1434)" display="none" fill="#E53A35" font-family="'MoskNormal400'" font-size="158.8919">Propers</text>
<path fill="#E53A35" d="M136.611,163.659c-11.195-8.309-26.255-12.468-45.18-12.468H45.756v36.802l19.505,8.131v-28.393h26.417
	c13.66,0,24.029,2.677,31.107,8.024c7.075,5.35,10.616,14.528,10.616,27.528c-0.332,12.182-4.444,21.194-12.345,27.035
	c-7.9,5.844-18.354,8.764-31.355,8.764H65.261v-28.539l-19.505,7.923v100.607h19.505v-63.451h23.701
	c18.763,0,34.151-4.482,46.168-13.455c12.012-8.969,18.104-22.177,18.269-39.625C153.399,184.933,147.802,171.972,136.611,163.659z"
	/>
<path fill="#E53A35" d="M350.658,213.283c-10.207-11.438-24.28-17.159-42.218-17.159c-11.85,0-22.22,2.677-31.107,8.023
	c-8.888,5.351-15.678,12.757-20.369,22.22c-2.766,5.581-4.724,11.646-5.916,18.169l18.138,7.562l0.581,0.288l0.014,0.178
	c1.024-10.646,4.428-19.639,10.267-26.937c6.913-8.641,16.294-12.962,28.145-12.962c12.012,0,21.313,4.321,27.898,12.962
	c6.581,8.641,9.876,20.04,9.876,34.193c-0.166,13.333-3.703,24.319-10.616,32.961c-6.912,8.64-16.294,12.962-28.145,12.962
	c-12.016,0-21.317-4.359-27.898-13.086c-5.32-7.047-8.452-15.845-9.474-26.332l-0.039,0.022l-0.609,0.171l-18.235,7.408
	c1.108,6.395,2.93,12.361,5.52,17.868c4.526,9.628,11.068,17.119,19.627,22.466c8.557,5.347,18.598,8.024,30.121,8.024
	c12.012,0,22.548-2.677,31.601-8.024c9.05-5.347,16.005-12.754,20.862-22.219c4.853-9.464,7.283-20.284,7.283-32.466
	C365.966,240.155,360.862,224.725,350.658,213.283z"/>
<g>
	<path fill="#E53A35" d="M480.151,213.53c-10.122-11.603-24.072-17.405-41.848-17.405c-4.938,0-10.207,1.03-15.801,3.086
		c-5.598,2.06-10.863,4.9-15.801,8.518l-4.197-8.394h-11.603v44.633l19.503,8.131v-28.322c3.951-3.784,8.148-6.582,12.591-8.394
		c4.444-1.809,9.629-2.716,15.555-2.716c12.012,0,21.189,4.321,27.527,12.962c6.335,8.641,9.506,20.04,9.506,34.193
		c-0.167,13.499-3.457,24.527-9.877,33.084c-6.419,8.56-15.553,12.839-27.404,12.839c-5.763,0-10.863-0.903-15.307-2.716
		c-4.443-1.809-8.64-4.444-12.591-7.901v-28.607l-19.503,7.923v101.417h19.503v-62.709c9.544,6.088,18.679,9.135,27.406,9.135
		c11.684,0,21.849-2.677,30.49-8.024c8.64-5.347,15.306-12.754,19.998-22.219c4.69-9.464,7.036-20.284,7.036-32.466
		C495.334,240.483,490.273,225.134,480.151,213.53z"/>
</g>
<g>
	<path fill="#E53A35" d="M736.947,220.929c1.116-1.539,2.576-2.939,4.404-4.19c4.69-3.209,10.74-4.814,18.146-4.814
		c6.088,0,11.518,0.74,16.294,2.222c4.772,1.481,9.877,3.456,15.307,5.925l6.173-13.332c-4.282-3.124-10.165-5.678-17.653-7.654
		c-7.491-1.975-14.033-2.962-19.627-2.962c-13.825,0-24.73,3.004-32.712,9.011c-3.267,2.459-5.853,5.303-7.783,8.518
		L736.947,220.929z"/>
	<path fill="#E53A35" d="M762.214,249.452c-8.889-2.963-15.72-6.006-20.492-9.135c-2.21-1.446-3.904-3.022-5.126-4.717
		l-17.969,7.299c1.792,3.154,4.279,6.008,7.542,8.528c7.241,5.596,16.622,10.288,28.145,14.072
		c19.752,6.584,29.627,14.32,29.627,23.207c0,5.598-2.636,9.96-7.901,13.084c-5.27,3.129-12.429,4.692-21.479,4.692
		c-10.37,0-21.151-2.797-32.343-8.394l-6.171,14.072c4.443,3.129,10.531,5.598,18.269,7.406c7.734,1.809,14.4,2.716,19.998,2.716
		c15.47,0,27.362-3.047,35.675-9.135c8.309-6.088,12.468-14.647,12.468-25.677C802.456,272.003,789.04,259.327,762.214,249.452z"/>
</g>
<g>
	<path d="M450.806,358.104v9.648h-2.267v-24.853h6.433c2.753,0,4.934,0.604,6.542,1.81s2.412,3.101,2.412,5.683
		c-0.024,2.559-0.901,4.483-2.631,5.774c-1.73,1.292-3.972,1.938-6.726,1.938H450.806z M461.623,350.429
		c0-2.022-0.561-3.46-1.681-4.313c-1.121-0.853-2.754-1.279-4.897-1.279h-4.239v11.329h3.837c2.096,0,3.776-0.462,5.044-1.389
		C460.953,353.852,461.599,352.402,461.623,350.429z"/>
	<path d="M470.212,341.949v25.803h-2.266v-25.438L470.212,341.949z"/>
	<path d="M481.87,351.452c-1.146,0-2.041,0.098-2.687,0.292c-0.646,0.195-1.443,0.512-2.394,0.95l-0.694-1.608
		c0.633-0.438,1.534-0.804,2.704-1.096c1.17-0.293,2.156-0.438,2.96-0.438c2.022,0,3.631,0.523,4.824,1.571
		c1.194,1.048,1.791,2.448,1.791,4.203v12.426h-1.863l-0.293-1.9c-0.609,0.634-1.42,1.188-2.431,1.663
		c-1.011,0.475-2.004,0.713-2.979,0.713c-1.925,0-3.398-0.506-4.422-1.518c-1.023-1.011-1.535-2.32-1.535-3.929
		c0-1.656,0.585-2.96,1.754-3.91c1.17-0.95,2.692-1.413,4.569-1.389h4.934v-1.791c0-1.291-0.36-2.321-1.078-3.089
		C484.313,351.836,483.259,351.452,481.87,351.452z M481.103,358.98c-1.268,0-2.254,0.365-2.961,1.097
		c-0.707,0.73-1.06,1.633-1.06,2.704c0,0.95,0.305,1.785,0.914,2.504c0.608,0.719,1.522,1.078,2.74,1.078
		c1.072,0,2.065-0.274,2.979-0.822c0.913-0.549,1.711-1.236,2.394-2.065v-4.495H481.103z"/>
	<path d="M496.16,350.392h3.216l0.768,1.718h-3.983v11.147c0,0.926,0.2,1.657,0.603,2.192c0.402,0.536,1.029,0.805,1.882,0.805
		c0.487,0,0.987-0.11,1.499-0.329l0.438,1.863c-0.073,0.024-0.317,0.104-0.731,0.238c-0.414,0.134-0.975,0.201-1.681,0.201
		c-1.315,0-2.363-0.409-3.144-1.225c-0.779-0.816-1.169-1.979-1.169-3.49v-11.403h-2.595l-0.037-1.718h2.632v-4.604l2.303-0.805
		V350.392z"/>
	<path d="M510.814,349.552c2.51,0,4.373,0.858,5.592,2.576s1.827,4.015,1.827,6.89h-13.156c0.023,2.266,0.56,4.063,1.607,5.391
		s2.705,1.991,4.971,1.991c0.975,0,1.9-0.128,2.777-0.384c0.878-0.256,1.803-0.64,2.778-1.151l0.768,1.682
		c-1.049,0.561-2.029,0.981-2.942,1.261c-0.914,0.28-2.005,0.421-3.271,0.421c-2.973,0-5.214-0.854-6.725-2.559
		s-2.266-3.996-2.266-6.871c0.023-2.753,0.736-4.982,2.138-6.688C506.313,350.404,508.28,349.552,510.814,349.552z M510.705,351.452
		c-1.682,0-2.985,0.542-3.91,1.626c-0.927,1.084-1.475,2.54-1.646,4.367h10.782C515.541,353.45,513.799,351.452,510.705,351.452z"/>
	<path d="M522.802,352.109h-2.631l-0.037-1.718h2.668v-3.216c0-1.535,0.39-2.765,1.17-3.691c0.779-0.926,1.827-1.389,3.143-1.389
		c0.78,0,1.584,0.158,2.412,0.475l-0.438,1.938c-0.146-0.073-0.378-0.146-0.694-0.22c-0.316-0.072-0.585-0.109-0.804-0.109
		c-1.682,0-2.521,0.999-2.521,2.997v3.216h3.216l0.768,1.718h-3.983v24.049h-2.267V352.109z"/>
	<path d="M538.81,368.228c-1.657,0-3.089-0.402-4.295-1.206c-1.206-0.805-2.126-1.919-2.759-3.345
		c-0.634-1.425-0.95-3.052-0.95-4.879c0.023-1.754,0.377-3.332,1.06-4.733c0.682-1.4,1.663-2.503,2.942-3.307
		c1.279-0.805,2.771-1.206,4.477-1.206c2.607,0,4.629,0.834,6.067,2.503c1.438,1.669,2.156,3.979,2.156,6.926
		c0,1.779-0.354,3.369-1.06,4.77c-0.707,1.401-1.718,2.498-3.034,3.289C542.099,367.831,540.563,368.228,538.81,368.228z
		 M545.205,359.018c0-2.267-0.512-4.094-1.535-5.482s-2.497-2.083-4.422-2.083c-1.9,0-3.394,0.682-4.478,2.046
		c-1.084,1.365-1.639,3.119-1.662,5.264c0,2.266,0.512,4.093,1.534,5.481c1.023,1.389,2.498,2.083,4.423,2.083
		c1.9,0,3.393-0.682,4.477-2.046S545.181,361.161,545.205,359.018z"/>
	<path d="M556.371,352.841c-1.206,0.683-2.188,1.438-2.942,2.266v12.646h-2.266v-17.726h1.498l0.658,2.814
		c0.828-0.682,1.796-1.321,2.905-1.919c1.108-0.597,2.077-0.896,2.905-0.896l0.621,1.791
		C558.703,351.817,557.577,352.159,556.371,352.841z"/>
	<path d="M586.905,355.436v12.28h-2.266v-11.842c0-1.364-0.226-2.437-0.676-3.216c-0.451-0.78-1.249-1.17-2.395-1.17
		c-0.78,0-1.705,0.305-2.777,0.914s-2.01,1.377-2.814,2.302l0.037,0.731v12.28h-2.267v-11.842c0-1.364-0.226-2.437-0.676-3.216
		c-0.451-0.78-1.249-1.17-2.394-1.17c-0.829,0-1.822,0.348-2.979,1.042c-1.158,0.694-2.139,1.553-2.942,2.576v12.646h-2.266v-17.726
		h1.863l0.366,2.704c0.755-0.877,1.729-1.626,2.923-2.247c1.194-0.621,2.29-0.932,3.29-0.932c2.436,0,3.995,1.06,4.678,3.179
		c0.755-0.877,1.729-1.626,2.924-2.247c1.193-0.621,2.29-0.932,3.289-0.932c1.755,0,3.039,0.529,3.856,1.589
		C586.497,352.201,586.905,353.633,586.905,355.436z"/>
	<path d="M598.454,349.552c2.51,0,4.373,0.858,5.592,2.576s1.827,4.015,1.827,6.89h-13.156c0.023,2.266,0.56,4.063,1.607,5.391
		s2.705,1.991,4.971,1.991c0.975,0,1.9-0.128,2.777-0.384c0.878-0.256,1.803-0.64,2.778-1.151l0.768,1.682
		c-1.049,0.561-2.029,0.981-2.942,1.261c-0.914,0.28-2.005,0.421-3.271,0.421c-2.973,0-5.214-0.854-6.725-2.559
		s-2.266-3.996-2.266-6.871c0.023-2.753,0.736-4.982,2.138-6.688C593.953,350.404,595.92,349.552,598.454,349.552z M598.345,351.452
		c-1.682,0-2.985,0.542-3.91,1.626c-0.927,1.084-1.475,2.54-1.646,4.367h10.782C603.181,353.45,601.438,351.452,598.345,351.452z"/>
	<path d="M631.858,367.752h-1.498l-0.402-1.389c-0.707,0.585-1.475,1.041-2.303,1.37s-1.681,0.494-2.558,0.494
		c-2.559,0-4.545-0.854-5.958-2.559s-2.119-3.972-2.119-6.798c0.023-1.778,0.359-3.375,1.005-4.788s1.584-2.521,2.814-3.325
		c1.229-0.805,2.698-1.206,4.403-1.206c1.413,0,2.852,0.536,4.313,1.607v-8.845l2.302-0.328V367.752z M629.557,364.426v-11.22
		c-0.609-0.561-1.262-0.992-1.956-1.298c-0.694-0.304-1.517-0.456-2.467-0.456c-1.876,0-3.308,0.688-4.294,2.064
		c-0.987,1.377-1.493,3.149-1.517,5.317c0,2.291,0.475,4.112,1.425,5.464c0.95,1.353,2.388,2.028,4.313,2.028
		C626.791,366.326,628.289,365.693,629.557,364.426z"/>
	<path d="M643.918,349.552c2.51,0,4.373,0.858,5.592,2.576s1.827,4.015,1.827,6.89h-13.156c0.023,2.266,0.56,4.063,1.607,5.391
		s2.705,1.991,4.971,1.991c0.975,0,1.9-0.128,2.777-0.384c0.878-0.256,1.803-0.64,2.778-1.151l0.768,1.682
		c-1.049,0.561-2.029,0.981-2.942,1.261c-0.914,0.28-2.005,0.421-3.271,0.421c-2.973,0-5.214-0.854-6.725-2.559
		s-2.266-3.996-2.266-6.871c0.023-2.753,0.736-4.982,2.138-6.688C639.417,350.404,641.384,349.552,643.918,349.552z
		 M643.809,351.452c-1.682,0-2.985,0.542-3.91,1.626c-0.927,1.084-1.475,2.54-1.646,4.367h10.782
		C648.645,353.45,646.902,351.452,643.809,351.452z"/>
	<path d="M677.322,367.752h-1.498l-0.402-1.389c-0.707,0.585-1.475,1.041-2.303,1.37s-1.681,0.494-2.558,0.494
		c-2.559,0-4.545-0.854-5.958-2.559s-2.119-3.972-2.119-6.798c0.023-1.778,0.359-3.375,1.005-4.788s1.584-2.521,2.814-3.325
		c1.229-0.805,2.698-1.206,4.403-1.206c1.413,0,2.852,0.536,4.313,1.607v-8.845l2.302-0.328V367.752z M675.021,364.426v-11.22
		c-0.609-0.561-1.262-0.992-1.956-1.298c-0.694-0.304-1.517-0.456-2.467-0.456c-1.876,0-3.308,0.688-4.294,2.064
		c-0.987,1.377-1.493,3.149-1.517,5.317c0,2.291,0.475,4.112,1.425,5.464c0.95,1.353,2.388,2.028,4.313,2.028
		C672.255,366.326,673.753,365.693,675.021,364.426z"/>
	<path d="M689.383,349.552c2.51,0,4.373,0.858,5.592,2.576s1.827,4.015,1.827,6.89h-13.156c0.023,2.266,0.56,4.063,1.607,5.391
		s2.705,1.991,4.971,1.991c0.975,0,1.9-0.128,2.777-0.384c0.878-0.256,1.803-0.64,2.778-1.151l0.768,1.682
		c-1.049,0.561-2.029,0.981-2.942,1.261c-0.914,0.28-2.005,0.421-3.271,0.421c-2.973,0-5.214-0.854-6.725-2.559
		s-2.266-3.996-2.266-6.871c0.023-2.753,0.736-4.982,2.138-6.688C684.882,350.404,686.849,349.552,689.383,349.552z
		 M689.273,351.452c-1.682,0-2.985,0.542-3.91,1.626c-0.927,1.084-1.475,2.54-1.646,4.367H694.5
		C694.109,353.45,692.367,351.452,689.273,351.452z M692.197,340.634l-3.106,5.592l-1.462-0.476l1.974-5.116H692.197z"/>
	<path d="M707.62,366.326c1.145,0,2.016-0.091,2.613-0.273c0.597-0.183,1.357-0.506,2.284-0.969l0.73,1.645
		c-0.683,0.438-1.584,0.799-2.704,1.078c-1.121,0.28-2.083,0.421-2.888,0.421c-1.705,0-3.186-0.396-4.44-1.188
		c-1.255-0.791-2.211-1.9-2.869-3.325c-0.657-1.426-0.986-3.064-0.986-4.916c0-1.754,0.353-3.338,1.06-4.751
		s1.705-2.516,2.997-3.308c1.291-0.792,2.79-1.188,4.495-1.188c0.755,0,1.693,0.146,2.814,0.438c1.12,0.292,2.022,0.657,2.704,1.096
		l-0.73,1.608c-0.877-0.438-1.639-0.755-2.284-0.95c-0.646-0.194-1.517-0.292-2.613-0.292c-1.9,0-3.394,0.682-4.478,2.046
		c-1.084,1.365-1.639,3.119-1.662,5.264c0,2.266,0.512,4.093,1.534,5.481C704.221,365.632,705.695,366.326,707.62,366.326z"/>
	<path d="M723.847,368.228c-1.657,0-3.089-0.402-4.295-1.206c-1.206-0.805-2.126-1.919-2.759-3.345
		c-0.634-1.425-0.95-3.052-0.95-4.879c0.023-1.754,0.377-3.332,1.06-4.733c0.682-1.4,1.663-2.503,2.942-3.307
		c1.279-0.805,2.771-1.206,4.477-1.206c2.607,0,4.629,0.834,6.067,2.503c1.438,1.669,2.156,3.979,2.156,6.926
		c0,1.779-0.354,3.369-1.06,4.77c-0.707,1.401-1.718,2.498-3.034,3.289C727.136,367.831,725.601,368.228,723.847,368.228z
		 M730.242,359.018c0-2.267-0.512-4.094-1.535-5.482s-2.497-2.083-4.422-2.083c-1.9,0-3.394,0.682-4.478,2.046
		c-1.084,1.365-1.639,3.119-1.662,5.264c0,2.266,0.512,4.093,1.534,5.481c1.023,1.389,2.498,2.083,4.423,2.083
		c1.9,0,3.393-0.682,4.477-2.046S730.218,361.161,730.242,359.018z"/>
	<path d="M738.83,341.949v25.803h-2.266v-25.438L738.83,341.949z"/>
	<path d="M746.578,341.949v25.803h-2.266v-25.438L746.578,341.949z"/>
	<path d="M758.237,351.452c-1.146,0-2.041,0.098-2.687,0.292c-0.646,0.195-1.443,0.512-2.394,0.95l-0.694-1.608
		c0.633-0.438,1.534-0.804,2.704-1.096c1.17-0.293,2.156-0.438,2.96-0.438c2.022,0,3.631,0.523,4.824,1.571
		c1.194,1.048,1.791,2.448,1.791,4.203v12.426h-1.863l-0.293-1.9c-0.609,0.634-1.42,1.188-2.431,1.663
		c-1.011,0.475-2.004,0.713-2.979,0.713c-1.925,0-3.398-0.506-4.422-1.518c-1.023-1.011-1.535-2.32-1.535-3.929
		c0-1.656,0.585-2.96,1.754-3.91c1.17-0.95,2.692-1.413,4.569-1.389h4.934v-1.791c0-1.291-0.36-2.321-1.078-3.089
		C760.68,351.836,759.626,351.452,758.237,351.452z M757.47,358.98c-1.268,0-2.254,0.365-2.961,1.097
		c-0.707,0.73-1.06,1.633-1.06,2.704c0,0.95,0.305,1.785,0.914,2.504c0.608,0.719,1.522,1.078,2.74,1.078
		c1.072,0,2.065-0.274,2.979-0.822c0.913-0.549,1.711-1.236,2.394-2.065v-4.495H757.47z"/>
	<path d="M783.088,370.018c0,1.17-0.305,2.217-0.913,3.144c-0.609,0.926-1.486,1.656-2.632,2.192s-2.474,0.805-3.983,0.805
		c-0.805,0-1.834-0.146-3.089-0.438c-1.255-0.293-2.235-0.646-2.941-1.061l0.694-1.681c0.779,0.365,1.571,0.663,2.375,0.896
		c0.805,0.23,1.767,0.358,2.888,0.384c1.559,0,2.832-0.366,3.819-1.097c0.986-0.731,1.48-1.791,1.48-3.18v-3.289
		c-1.39,1.023-2.876,1.535-4.459,1.535c-2.559,0-4.545-0.854-5.958-2.559s-2.119-3.972-2.119-6.798
		c0.023-1.778,0.359-3.375,1.005-4.788s1.584-2.521,2.814-3.325c1.229-0.805,2.698-1.206,4.403-1.206
		c1.486,0,3.021,0.608,4.605,1.827l0.512-1.353h1.498V370.018z M780.786,364.426v-11.22c-0.609-0.561-1.262-0.992-1.956-1.298
		c-0.694-0.304-1.517-0.456-2.467-0.456c-1.876,0-3.308,0.688-4.294,2.064c-0.987,1.377-1.493,3.149-1.517,5.317
		c0,2.291,0.475,4.112,1.425,5.464c0.95,1.353,2.388,2.028,4.313,2.028C778.021,366.326,779.519,365.693,780.786,364.426z"/>
	<path d="M795.002,349.552c2.51,0,4.373,0.858,5.592,2.576s1.827,4.015,1.827,6.89h-13.156c0.023,2.266,0.56,4.063,1.607,5.391
		s2.705,1.991,4.971,1.991c0.975,0,1.9-0.128,2.777-0.384c0.878-0.256,1.803-0.64,2.778-1.151l0.768,1.682
		c-1.049,0.561-2.029,0.981-2.942,1.261c-0.914,0.28-2.005,0.421-3.271,0.421c-2.973,0-5.214-0.854-6.725-2.559
		s-2.266-3.996-2.266-6.871c0.023-2.753,0.736-4.982,2.138-6.688C790.501,350.404,792.468,349.552,795.002,349.552z
		 M794.893,351.452c-1.682,0-2.985,0.542-3.91,1.626c-0.927,1.084-1.475,2.54-1.646,4.367h10.782
		C799.729,353.45,797.986,351.452,794.893,351.452z"/>
</g>
</svg>
